# xmcd CD database file
#
# Track frame offsets:
#	150
#	12731
#	25000
#	42115
#	56572
#	74828
#	91111
#	106720
#	123261
#	136343
#	150228
#	162064
#	179454
#	192624
#	208256
#	222831
#	234709
#	250484
#	269163
#	282813
#
# Disc length: 3946 seconds
#
# Revision: 1
# Processed by: cddbd v1.5.1PL0 Copyright (c) Steve Scherf et al.
# Submitted via: CDex 1.51
#
DISCID=270f6814
DTITLE=Tanya Tucker - Greatest Hits
DYEAR=1900
DGENRE=Country
TTITLE0=Daddy And Home
TTITLE1=Strong Enough To Bend
TTITLE2=Love Me Like You Used To
TTITLE3=Just Another Love
TTITLE4=I'll Come Back As Another Woman
TTITLE5=My Arms Stay Open All Night 
TTITLE6=If It Don't Come Easy
TTITLE7=I Won't Take Less Than Your Love with Paul Davsi and Paul Overstreet
TTITLE8=One Love At A Time
TTITLE9=It's Only Over For You
TTITLE10=It's A Little Too Late 
TTITLE11=Some Kind Of Trouble
TTITLE12=What Do I Do With Me, (Without You)
TTITLE13=Down To My Last Tear Drop
TTITLE14=Don't Go Out - (with T. Graham Brown)
TTITLE15=Walking Shoes
TTITLE16=Oh What It Did To Me
TTITLE17=Two Sparrows In A Hurricane 
TTITLE18=If Your Heart Ain't Busy Tonight 
TTITLE19=It Won't Be Me
EXTD=
EXTT0=
EXTT1=
EXTT2=
EXTT3=
EXTT4=
EXTT5=
EXTT6=
EXTT7=
EXTT8=
EXTT9=
EXTT10=
EXTT11=
EXTT12=
EXTT13=
EXTT14=
EXTT15=
EXTT16=
EXTT17=
EXTT18=
EXTT19=
PLAYORDER=
